<svg width="15" height="14" viewBox="0 0 15 14" fill="none" xmlns="http://www.w3.org/2000/svg">
<path d="M1.82874 2.5C1.56352 2.5 1.30916 2.60536 1.12163 2.79289C0.934092 2.98043 0.828735 3.23478 0.828735 3.5V12.5C0.828735 12.7652 0.934092 13.0196 1.12163 13.2071C1.30916 13.3946 1.56352 13.5 1.82874 13.5H12.8287C13.094 13.5 13.3483 13.3946 13.5358 13.2071C13.7234 13.0196 13.8287 12.7652 13.8287 12.5V3.5C13.8287 3.23478 13.7234 2.98043 13.5358 2.79289C13.3483 2.60536 13.094 2.5 12.8287 2.5H10.8287" stroke="#1C9D98" stroke-linecap="round" stroke-linejoin="round"/>
<path d="M3.82874 0.5V4.5" stroke="#1C9D98" stroke-linecap="round" stroke-linejoin="round"/>
<path d="M10.8287 0.5V4.5" stroke="#1C9D98" stroke-linecap="round" stroke-linejoin="round"/>
<path d="M3.82874 2.5H8.82874" stroke="#1C9D98" stroke-linecap="round" stroke-linejoin="round"/>
<path d="M9.82874 10H4.82874" stroke="#1C9D98" stroke-linecap="round" stroke-linejoin="round"/>
<path d="M0.828735 6.5H13.8287" stroke="#1C9D98" stroke-linecap="round" stroke-linejoin="round"/>
</svg>
