<svg width="25" height="24" viewBox="0 0 25 24" fill="none" xmlns="http://www.w3.org/2000/svg">
<path d="M21.5667 2H3.76666C3.47492 2 3.19513 2.11589 2.98884 2.32218C2.78255 2.52847 2.66666 2.80826 2.66666 3.1V20.9C2.66666 21.1917 2.78255 21.4715 2.98884 21.6778C3.19513 21.8841 3.47492 22 3.76666 22H13.3467V14.25H10.7467V11.25H13.3467V9C13.2928 8.47176 13.3552 7.93813 13.5294 7.43654C13.7036 6.93495 13.9854 6.47755 14.3551 6.09641C14.7248 5.71528 15.1734 5.41964 15.6695 5.23024C16.1655 5.04083 16.697 4.96225 17.2267 5C18.005 4.99521 18.7829 5.03528 19.5567 5.12V7.82H17.9667C16.7067 7.82 16.4667 8.42 16.4667 9.29V11.22H19.4667L19.0767 14.22H16.4667V22H21.5667C21.7111 22 21.8541 21.9715 21.9876 21.9163C22.1211 21.861 22.2423 21.78 22.3445 21.6778C22.4466 21.5757 22.5276 21.4544 22.5829 21.321C22.6382 21.1875 22.6667 21.0445 22.6667 20.9V3.1C22.6667 2.95555 22.6382 2.81251 22.5829 2.67905C22.5276 2.54559 22.4466 2.42433 22.3445 2.32218C22.2423 2.22004 22.1211 2.13901 21.9876 2.08373C21.8541 2.02845 21.7111 2 21.5667 2Z" fill="#FFF9F0"/>
</svg>
