<svg width="25" height="24" viewBox="0 0 25 24" fill="none" xmlns="http://www.w3.org/2000/svg">
<path fill-rule="evenodd" clip-rule="evenodd" d="M8.13166 1.066C9.30466 1.012 9.67866 1 12.6667 1C15.6547 1 16.0287 1.013 17.2007 1.066C18.3727 1.119 19.1727 1.306 19.8727 1.577C20.6057 1.854 21.2707 2.287 21.8207 2.847C22.3807 3.396 22.8127 4.06 23.0887 4.794C23.3607 5.494 23.5467 6.294 23.6007 7.464C23.6547 8.639 23.6667 9.013 23.6667 12C23.6667 14.988 23.6537 15.362 23.6007 16.535C23.5477 17.705 23.3607 18.505 23.0887 19.205C22.8126 19.9391 22.3799 20.6042 21.8207 21.154C21.2707 21.714 20.6057 22.146 19.8727 22.422C19.1727 22.694 18.3727 22.88 17.2027 22.934C16.0287 22.988 15.6547 23 12.6667 23C9.67866 23 9.30466 22.987 8.13166 22.934C6.96166 22.881 6.16166 22.694 5.46166 22.422C4.72758 22.146 4.06248 21.7133 3.51266 21.154C2.95304 20.6047 2.51997 19.9399 2.24366 19.206C1.97266 18.506 1.78666 17.706 1.73266 16.536C1.67866 15.361 1.66666 14.987 1.66666 12C1.66666 9.012 1.67966 8.638 1.73266 7.466C1.78566 6.294 1.97266 5.494 2.24366 4.794C2.52038 4.06008 2.95378 3.39531 3.51366 2.846C4.0627 2.2865 4.72713 1.85344 5.46066 1.577C6.16066 1.306 6.96166 1.12 8.13166 1.066ZM17.1117 3.046C15.9517 2.993 15.6037 2.982 12.6667 2.982C9.72966 2.982 9.38166 2.993 8.22166 3.046C7.14866 3.095 6.56666 3.274 6.17866 3.425C5.66566 3.625 5.29866 3.862 4.91366 4.247C4.5487 4.60205 4.26784 5.03428 4.09166 5.512C3.94066 5.9 3.76166 6.482 3.71266 7.555C3.65966 8.715 3.64866 9.063 3.64866 12C3.64866 14.937 3.65966 15.285 3.71266 16.445C3.76166 17.518 3.94066 18.1 4.09166 18.488C4.26766 18.965 4.54866 19.398 4.91366 19.753C5.26866 20.118 5.70166 20.399 6.17866 20.575C6.56666 20.726 7.14866 20.905 8.22166 20.954C9.38166 21.007 9.72866 21.018 12.6667 21.018C15.6047 21.018 15.9517 21.007 17.1117 20.954C18.1847 20.905 18.7667 20.726 19.1547 20.575C19.6677 20.375 20.0347 20.138 20.4197 19.753C20.7847 19.398 21.0657 18.965 21.2417 18.488C21.3927 18.1 21.5717 17.518 21.6207 16.445C21.6737 15.285 21.6847 14.937 21.6847 12C21.6847 9.063 21.6737 8.715 21.6207 7.555C21.5717 6.482 21.3927 5.9 21.2417 5.512C21.0417 4.999 20.8047 4.632 20.4197 4.247C20.0646 3.88207 19.6324 3.60121 19.1547 3.425C18.7667 3.274 18.1847 3.095 17.1117 3.046ZM11.2617 15.391C12.0463 15.7176 12.92 15.7617 13.7336 15.5157C14.5471 15.2697 15.25 14.7489 15.7223 14.0422C16.1945 13.3356 16.4067 12.4869 16.3227 11.6411C16.2387 10.7953 15.8637 10.005 15.2617 9.405C14.8779 9.02148 14.4139 8.72781 13.903 8.54515C13.3921 8.36248 12.8471 8.29536 12.3072 8.34862C11.7672 8.40187 11.2458 8.57418 10.7805 8.85313C10.3151 9.13208 9.9174 9.51074 9.61596 9.96185C9.31452 10.413 9.11685 10.9253 9.03717 11.462C8.9575 11.9986 8.99781 12.5463 9.1552 13.0655C9.31258 13.5847 9.58314 14.0626 9.94738 14.4647C10.3116 14.8668 10.7605 15.1832 11.2617 15.391ZM8.66866 8.002C9.19368 7.47697 9.81698 7.0605 10.503 6.77636C11.1889 6.49222 11.9242 6.34597 12.6667 6.34597C13.4092 6.34597 14.1444 6.49222 14.8304 6.77636C15.5163 7.0605 16.1396 7.47697 16.6647 8.002C17.1897 8.52702 17.6062 9.15032 17.8903 9.8363C18.1744 10.5223 18.3207 11.2575 18.3207 12C18.3207 12.7425 18.1744 13.4777 17.8903 14.1637C17.6062 14.8497 17.1897 15.473 16.6647 15.998C15.6043 17.0583 14.1662 17.654 12.6667 17.654C11.1671 17.654 9.72899 17.0583 8.66866 15.998C7.60832 14.9377 7.01263 13.4995 7.01263 12C7.01263 10.5005 7.60832 9.06234 8.66866 8.002ZM19.5747 7.188C19.7048 7.06527 19.8089 6.91768 19.881 6.75397C19.953 6.59027 19.9915 6.41377 19.9941 6.23493C19.9967 6.05609 19.9634 5.87855 19.8961 5.71281C19.8289 5.54707 19.7291 5.39651 19.6026 5.27004C19.4761 5.14357 19.3256 5.04376 19.1598 4.97652C18.9941 4.90928 18.8166 4.87598 18.6377 4.87858C18.4589 4.88119 18.2824 4.91965 18.1187 4.9917C17.955 5.06374 17.8074 5.1679 17.6847 5.298C17.446 5.55103 17.3153 5.88712 17.3204 6.23493C17.3254 6.58274 17.4658 6.91488 17.7118 7.16084C17.9578 7.40681 18.2899 7.54723 18.6377 7.5523C18.9855 7.55737 19.3216 7.42669 19.5747 7.188Z" fill="#FFF9F0"/>
</svg>
